/* XPM */
static const char *eye_icon_01[] = {
/* columns rows colors chars-per-pixel */
"64 64 250 2 ",
"   c #3A0C00",
".  c #3B1402",
"X  c #3C1907",
"o  c #2F0D00",
"O  c #441201",
"+  c #441B05",
"@  c #441D0A",
"#  c #4B1B07",
"$  c #551B05",
"%  c #440F04",
"&  c #45210D",
"*  c #4B210C",
"=  c #4D2107",
"-  c #54230B",
";  c #5A250D",
":  c #58260C",
">  c #462312",
",  c #4C2412",
"<  c #4E2A15",
"1  c #522612",
"2  c #542A14",
"3  c #5B2B13",
"4  c #5B2D19",
"5  c #582916",
"6  c #5C311B",
"7  c #53301A",
"8  c #622B13",
"9  c #672B16",
"0  c #63321C",
"q  c #693318",
"w  c #763418",
"e  c #67280E",
"r  c #552E24",
"t  c #583828",
"y  c #573D30",
"u  c #673925",
"i  c #753B26",
"p  c #633E34",
"a  c #5D4237",
"s  c #75422C",
"d  c #6A4636",
"f  c #754736",
"g  c #724833",
"h  c #7B5648",
"j  c #765C53",
"k  c #6C5145",
"l  c #796358",
"z  c #7B6B62",
"x  c #88391A",
"c  c #8E391A",
"v  c #893D22",
"b  c #903E22",
"n  c #97421C",
"m  c #87421B",
"M  c #A2411C",
"N  c #89472A",
"B  c #944422",
"V  c #984927",
"C  c #96522D",
"Z  c #874C38",
"A  c #87523B",
"S  c #985839",
"D  c #964E35",
"F  c #A44B25",
"G  c #AC4C26",
"H  c #A44E2A",
"J  c #A94925",
"K  c #A5522C",
"L  c #AC522C",
"P  c #AC562C",
"I  c #B3542D",
"U  c #B8542C",
"Y  c #A85935",
"T  c #B55B33",
"R  c #BB5B33",
"E  c #B75A36",
"W  c #AF4D2C",
"Q  c #A6643C",
"!  c #BA623A",
"~  c #9E6137",
"^  c #C35D38",
"/  c #C3633A",
"(  c #C8683D",
")  c #D1663E",
"_  c #875746",
"`  c #965A46",
"'  c #8F5E52",
"]  c #A35A43",
"[  c #B25740",
"{  c #95614F",
"}  c #886357",
"|  c #976656",
" . c #8A614F",
".. c #A86447",
"X. c #B86846",
"o. c #BA734C",
"O. c #A86A56",
"+. c #BB7657",
"@. c #AC7055",
"#. c #836D67",
"$. c #897368",
"%. c #94776C",
"&. c #897A72",
"*. c #947972",
"=. c #976B60",
"-. c #A87566",
";. c #B37563",
":. c #C46A44",
">. c #CB6C44",
",. c #C66A46",
"<. c #D16D44",
"1. c #DA6E47",
"2. c #CD734B",
"3. c #C6734A",
"4. c #D4754B",
"5. c #C47B55",
"6. c #C77956",
"7. c #D57B53",
"8. c #D67D57",
"9. c #C77C62",
"0. c #D07E61",
"q. c #998579",
"w. c #8F847D",
"e. c #BD8369",
"r. c #A98577",
"t. c #B78878",
"y. c #CC845C",
"u. c #C9845A",
"i. c #DB855B",
"p. c #D6855B",
"a. c #E1875C",
"s. c #CD8662",
"d. c #CA8865",
"f. c #D18462",
"g. c #DB8662",
"h. c #D28B65",
"j. c #DB8B64",
"k. c #D58E69",
"l. c #DB8D6A",
"z. c #D5926C",
"x. c #DB936D",
"c. c #DB9568",
"v. c #CC9376",
"b. c #DC9A73",
"n. c #D79875",
"m. c #CC8B71",
"M. c #E28D65",
"N. c #E38D69",
"B. c #E4946D",
"V. c #E4996D",
"C. c #E69569",
"Z. c #E49571",
"A. c #E49B73",
"S. c #EA9C75",
"D. c #E49D79",
"F. c #EB9E79",
"G. c #E99671",
"H. c #DDA17C",
"J. c #E6A176",
"K. c #EAA077",
"L. c #E6A27B",
"P. c #ECA37B",
"I. c #EAA97D",
"U. c #FFA573",
"Y. c #FEAB75",
"T. c #F2A57C",
"R. c #F5AB7C",
"E. c #FDAD7B",
"W. c #F1A476",
"Q. c #FCB17D",
"!. c #988C86",
"~. c #968F91",
"^. c #A79689",
"/. c #A89A94",
"(. c #AD9287",
"). c #B8A399",
"_. c #ADA298",
"`. c #B7A7A4",
"'. c #B5B2B8",
"]. c #B09EA0",
"[. c #C79787",
"{. c #D29D88",
"}. c #D2A793",
"|. c #E5A581",
" X c #EBA682",
".X c #EDAB84",
"XX c #EDAE8B",
"oX c #E6AA84",
"OX c #F1A682",
"+X c #F3AC84",
"@X c #FAAE81",
"#X c #F3AE8B",
"$X c #F8AE8A",
"%X c #EEB18C",
"&X c #ECB285",
"*X c #FDB384",
"=X c #F3B38C",
"-X c #FBB58B",
";X c #FFBA8C",
":X c #F7B487",
">X c #EEB392",
",X c #ECB797",
"<X c #F3B592",
"1X c #F9B694",
"2X c #F5B995",
"3X c #FCBB93",
"4X c #F9B699",
"5X c #F5BB9A",
"6X c #FABC9A",
"7X c #F5B698",
"8X c #ECAB95",
"9X c #C3ACA4",
"0X c #D5B5AA",
"qX c #C3B6B7",
"wX c #CEB7AF",
"eX c #FBBDA1",
"rX c #F6BEA0",
"tX c #E1BBB1",
"yX c #FFC096",
"uX c #FDC29C",
"iX c #F6C19C",
"pX c #D6C3BA",
"aX c #F6C2A2",
"sX c #FDC4A4",
"dX c #FEC9A6",
"fX c #FDC6AA",
"gX c #FECBAC",
"hX c #F7CDAF",
"jX c #FFD1AF",
"kX c #FFCEB1",
"lX c #F6CCB4",
"zX c #FFD2B3",
"xX c #FFD9B9",
"cX c #FFD8B7",
"vX c #E9C9BA",
"bX c #CBC7C8",
"nX c #D8C9C9",
"mX c #DED1CC",
"MX c #DCD7D9",
"NX c #CECDD3",
"BX c #E3D3CC",
"VX c #E5D9D5",
"CX c #E7D0CC",
"ZX c #F0E3DD",
"AX c #EBE6E5",
"SX c #F1ECEB",
"DX c #EDF3F5",
"FX c #F4F6F7",
"GX c #EFEFF1",
"HX c #DEE0E7",
/* pixels */
"xXxXcXxXxXxXcXzXcXzXzXjXzXjXjXjXgXdXdX6X2X1XK.W.i.4.2./ W U R ^ G V B W F F H E o.l.7X>X|.5XrX5X5X5XaXsX5X,X7X>XXXXXoX|.n.b.x.n.",
"cXcXzXzXcXzXzXzXzXzXjXgXgXdXdXgX6X#X+XF.M.a.i.p.<.! L L U W L c B n x B K +.s.<X6XsX5X5X7X5X6X5XsXsXfXfXrXaXrX5X,X8XXXoX|.D.|.x.",
"zXzXcXkXcXgXgXgXjXjXgXjXsXuXuX=X#XF.G.C.7.<.<.( F G L L G V c x c c Y 3.D.>XsXsXlXkXfXkXfXsX5XsXfXfXhXgXaXsXaXaX,X,X>XXXXX|.D.x.",
"jXcXcXkXgXjXzXgXgXgXgX6X1X1X#X$XP.T.a.>.R R G F L L H n V B B B K E ,.D.eXfXgXkXsXfXkXkXkXkXgXgXfXfXhXfXfXhXfXiX2X>X%X>X>X X|.D.",
"gXzXzXkXzXgXgXgXgXsX6X-X+XOXT.G.B.3.R I / T L P P F V G P n C :.:.6.|.7XsXgXkXkXkXkXcXzXzXjXgXhXhXfXgXhXdXfXfXaXiX,X,X<XXX X|.D.",
"gXzXgXgXjXgXgXsXuXuX1XR.S.C.M.7.E I ^ / U I I L L B T P B K ,.8.OXeXlXkXkXkXkXzXzXzXkXcXzXzXgXfXzXgXhXfXhXfXhXaX5X5X7X<XXXXX|.|.",
"gXjXgXgXdXsX6X3X$XOXS.C.7.>.1.,.T :.I K n T P H F T P K ! 6.j..X8XeXkXkXfXkXkXzXzXgXfXgXgXgXgXgXhXhXgXhXfXhXaXiX5X7X<X>X8XXX|.OX",
"zXgXdXsX6X-X+XT.S.C.7.4.2.4.( R ( P ( ! P P P B H I :.p.N.L.6X6XsXsXfXgXkXkXzXkXgXgXkXgXgXgXdXhXgXfXfXdXfXsXaXsXaX>X<X>X#X.X XD.",
"fXuX6X1X$X+XOXS.M.>.<.>.:.R ^ T E :.K V V L K E p.B.A.J.XX6X6X6XeXgXdXgXjXhXgXdXdXhXgXgXhXdXdXgXdXhXsXdXsXfXfX5X5X,X<X>X.X.X XD.",
"6X3X$XT.T.S.M.4.( <.R W U R W ^ ,.G H P F ! 8.B. X.X<X6XsX6X5X5X6X5X6XsXsXdXsXdXdXdXsXsXsXdXiXaXsXaXiXiXaXsXaXiX5X2X>X<XXX XD.D.",
"$X$XW.G.a.7.<.4.<.R G P I G R ! L F F T p.j.Z.&X#X<X6X2X6X2X6X<X2X5XsXiXuXiXiX2XyXiXiXiX5XuXuXiXiX2X5XiXiX5X2X>X5X2X%X%X X XD.D.",
"@XT.G.8.4.1.) / R M I I G ^ R I G G X.j.P.P.#X=X<X6X6X2X5XuX2XuX2XsXuX5XuXiX3Xu.=XiX-X<X<X2X2X<X>X<X<X5X<X%X<X<X%XXXoX.X|.|.D.A.",
"M.8.1.1.) U U U n L R G R R G F F >.B.P.&X%X2X5X<X2X<X2X2XiX2X6Xc.2X2X2X<XoXyXu.%X=X&X.XOX=X%X.X=XXX%X.X X>XXX#XL.|.|.J.P.D.b.Z.",
"<.<.^ U G G G J G M I R I F P ! g.F.=X6X2XiX:X:X2X2X=X1X:X&X:X.Xh.2X2X=X.XJ.iXu.=X X.X+X.X.XI. XI..X.X.X|.L.|.|.L.|.D.D.D.x.A.x.",
") ) W M G U U F I I E F T R p.C.=X#X<X-X1X.XJ.1X2X=X<X=XI.H.J.H.Q :X&X%XI.z.&XX.=XI.h.I.L.K.L.I.P.A.A.A.J.D.x.b.A.D.x.b.x.x.x.x.",
"^ ^ J J G J n T ,.G J ,.g.P.#X=X&X#X2X#X.XP.I.2X=X&X+X.Xc.L.I.I.C dX2X&X&Xd.Q o.<X.X..I.c.b.A.A.x.k.z.x.x.c.D.Z.z.k.x.x.b.x.x.k.",
"U M M M M M ^ ) c X.G.+X#X:X.X.X.X#X=X.X+XJ.c.-X&X=X=X=Xu.y.c.yXN iXiX&XyXu.w y.&Xz.~ V.5.h.y.A.h.y.b.c.b.b.o.h.b.x.z.z.k.z.k.j.",
"U G U G U ^ ^ c ,.N.T.I.T..XR.#X.X#X.XI.I.x.o.=XI.I.&X&Xu.! c.:X~ c.I.&XI.u.m c.h.u.~ c.o.3.Q h.X.S 5.o.d.h.X.x.x.s.h.h.d.h.h.y.",
"U ^ G ^ U W W N..XOX+XOX#X.X.XI.P.P..XA.I.V.Y R.I.I.&X&Xc.P u.:XC o.J.I.u.C N u.o.Q i Q C N C 5.C Y C X.7.y.C z.d.h.h.h.h.f.f.8.",
"^ G ) ^ F ,.G.$X&X+X.XOXI.P.P.I.J.P.P.c.u.j.K 3.j.C.c.c.( C ~ u.q q C q = = = 3 3 = & - = + = 2 1 q C ! 6.S Q k.h.5.s.z.d.s.s.5.",
"U >.>.X.g.P.OX#XI.R.P.J.J.K.J.J.V.J.V.C.P ( 2.F Y Y N w q # + = & = + + + + = = = & & + @ - < @ X X = w Z 8 o.j.o.+.c.k.y.3.X.Q ",
"^ <.i.P.F.F.P.J.W.J.V.A.K.J.V.V.V.V.C.M.4.V n : ; 3 - 4 0 - - 0 = = 6 < = = + + + & & + @ + @ @ @ & X X X 3 ..S C 5.Q ..Z N N Y ",
"8.G.P.P.P.P.S.A.V.S.J.S.V.C.j.p.p.S.u.P w 8 q 3 $ : 0 9 0 - * 3 : 6 : = * = + = + + + + + + + @ @ @ @ @ & X . 1 s i 0 0 1 6 Y X.",
" XP.S.S.F.V.V.A.S.S.J.i.p.j.S.i.! n m w : 3 : 3 3 3 : h g : ; 3 7 0 3 2 : 3 2 , = + + + X + + @ + & + @ X @ > & & @ 2 0 4 Y 3.6.",
"T.F.S.S.A.B.S.A.J.V.C.C.C.M.a.:.m s q 3 : : : 3 q 3 6 %.d r 0 u g d d a 7 t h d u 2 + @ & @ @ X . @ @ X X X > , 7 < u 0 D X.2.6.",
"F.F.A.B.B.V.A.S.S.J.V.C.c.p.m m S 8 - - : 8 8 8 u q 3 r j # u h k l z z d a ^.`.$.} p 4 - @ @ @ @ @ @ @ X % > , 7 4 4 q T ,.2.7.",
"A.Z.B.B.V.S.K.K.K.J.C.i.3.B m D q - - : 3 8 s f g s d ZXFX`.O t g j z z k a !.bXqX].].*.} u + @ @ @ @ @ , > # u 3 : w E >.>.2.p.",
"B.C.B.A.S.S.J.J.J.V.i.3.V ..` $ : ; ; q : 3 #.$.l 6 d DXFX$.  2 g z &.j $.a ~.VXmXnXqX`.r.} Z 9 # @ @ @ @ @ # * # x K R ,.2.2.i.",
"C.N.B.A.J.S.J.J.V.M.! K { ~ ; : : q q g g h q.q.l s . t d . * 2 d &./.!.z a ~.MXnXnXnXnX].r.=.v i 9 1 # # # # 9 v F [ <.2.,.4.g.",
"j.B.A.S.S.J.S.G.i.! K u.@.: : ; s f | }  .*.q.^.#.d * = , , X 6 k !.z &.z a _.mXnXMXVXCXqXt.-.D w 9 9 5 5 ; 5 w H :.4.,.,.,.M.M.",
"M.B.S.S.S.S.G.i.! C p.e.8 - $ _ | t.pX).q.*.q.!.q.h g 0 8 2 r d l &.z w.j a qXpXnXCXMXCX9Xt.O.{ ` D D N 9 w x v V [ X.,.8.N.C.G.",
"i.P.A.S.V.C.7./ H 5.u.f O e { ).pXCXnXZX).j #._.^.q.q.=.| _  .} &.!.!.z y l VXpXnXmXCXtX).t.;.{ O._ u Z D H Y [ ,.7.g.B.N.C.G.W.",
"P.K.S.V.M.7.R E 6.k.D % 8 ` (.9XVXBXAXSXnX*.#.`.r.).r.).r.r.*.&.!.w.&.j r _.mXnXmXVXnXwX9Xv.| i ,   X > i Y [ 3.9.0.l.Z.S.P.W.W.",
"A.V.j.i.4.R ! 5.s.5.$ e _ t.9XVXVXAXSXSXAX'.} &._._.).^.^.(./.q.q.w.l r &.NXmXMXMXmXwX9X).' > o X > , r v ] 6.6.f.g.G.F.K.T.T.T.",
"G.M.i.4./ ! 8.+.` $ e _ -.tXpXCXZXSXSXGXSXAX`.#.q.r.q.r.q.q.q.q.^.&.d z bXMXMXMXVXnXwX*.r   X X % > 1 u ` X.6.h.l.l.A.P.T.R.W.S.",
"B.x.p.( 6.h.m.X.$ x {.tX(.0XpXZXZXAXSXGXFXGXAX'.$.q.w.q.$.%.!.&.l d z pXMXMXMXMXnX)._ X . @ @ > > 0 u i Y 5.s.F.j.Z.A.P.T.R.U.W.",
"J.B.:.x.l.,.6.[ x W [.FXtXwXCXCXZXZXSXGXGXGXGXDXbXw.z l j } j k l !.bXHXHXMXmX`.h @   @ > , & < r f ..[ o.+.f.Z.V.J.K.R.R.T.R.R.",
"P.3.f.sX|.{.+.b E ;.tXZXvXtXCXZXZXSXGXFXFXSXGXFXDXDXNX'.~.~./.'.NXNXNXqX~.j r . X & > > > < 7 g A Z @.+.u.g.A.A.S.K.R.R.R.R.Q.R.",
"J.3.6X>X8Xn.9.vXm.8XZX{.}.vX0X-.{ %.(.).`.`.).`.`.`._.'.bX].$.#.d r , . . @ @ & & * , , r s A f ..@.S 6.l.x.G.S.K.T.R.R.R.R.Y.R.",
"b.A.iXaX4Xb e 9.[ J x e $ % % % # O % % O = $ + + o X X       %   . & * , 1 < , p 7 i f f -.O.@.] +.Y s.A.A.S.R.T.R.W.R.R.R.R.Y.",
"I.5XzXhX5.x w x x N ] Z ; 5 u - - u h u u f k 9 !.f u j } *.} f r.=.d h g  .g g f _ { -.@.e.;.e.` 5.o.x.I.P.P.R.R.R.R.R.Q.*XR.Q.",
"%XjXzX&X3...b c b D N 5 i Z i u { %._ _ f ;.' p ' ' i u } u p u =._ p f s | r.-.-.O.| d.e.e.d.n.5.x.5.A.K.I.R.R.R.+X+X*X+XQ.Q.Q.",
"aXxXxXL.n.6.C C ] ` 9X-.=.{ _ ` |  .f f Z ` ` ` i _ ` i _ ` | i | | ` { f -.{.v.t.m.@.e.v.d.b.b.y.u.g.P.R.+X+X+X*X*X*X*X*XQ.Q.Q.",
"zXzXdXH.s.@...9XCXv.t.` O...D [ ] ..S O.` ` ` O.` O.O.{ ` { ;.` m.[.m.;.e.e.{.{.v.v.d.d.n.b.b.J.X.j.A.T.+XR.R.@X$XR.R.@XR.R.*XQ.",
"dXdXiX<Xk.v.}.vX,Xm.v.d.0.f.9.6.0.6.X.0.6.;.6.6.O.+.9.9.@.O.oX@.[.XX{.H.v.v.{.H.H.b.b.d.n.b.b.x.x.T.P.P.+X@X:X:X@X*XR.Q.*XQ.Q.Q.",
"yXiX:X5X5XaXhXcX,X|.|.b.x.x.0.0.N.N.0.0.f.0.Z.l.0.f.l.m.z.+.oXm.n.H.I.H.L.H.I.H.b.H.L.x.b.J.J.A.J.L.F.OX:X@X@X:X:X:X*X*X*XQ.Q.Y.",
"<X:X2XuX5XiXiX,X8X XD.x.l.Z.f.OXl.0.0.N.N.0.l.0.g.g.Z.D.P.h.P.L.b. XI.L.L.A.J.J.L.P.P.b.b.P.P..XP.+X#X-X-X-X:X@X*X@X*X*XQ.Q.Q.Y.",
"XX=X2X=X,X5X,X%XD. XD.Z.Z.Z.N.F.G.G.G.0.N.G.OXG.A.Z.N.A.N.A.K.A.A.A.P.L.L.L.I.I.I.P.P.L.A..X.X.X+X=X-X:X-X-XR.Q.:X:XQ.*X*XQ.Q.Y.",
"V.#X.X<X,X7X>X7X<X<XOX|.Z.Z.G.F.F.F.G.F.F.G.F.G.OXOXOXOXI.OXK.D.J.P.J.A.L.K.P..X=X=X=X=X:X=X1X-X1X3X3X;X;X:X:X:X*X*X;XQ.Q.Y.Y.Y.",
"%X=X#X7X7X4X7X<X<X>XOXOXOXOXF.OXOXOXOXOXOXOXOXOXF.F.F.$X+X#X=X-X=X:X1X=X:X<X1X:X=X=X=X=X=X>XyX2X1X-X3X-X;X-X-X-X;X;X*X*XQ.Q.Y.Y.",
"<X<XXX<X,XrX7XXX X4X#X#X8XOX#X#X#XOX#X#X$XOX$X$X$X#X$X1X=X#X#X#X.X&X.X:X=X=X<X2X<X<X2X5XiX=X=XuXyX3X3X-X-X-X*X*X*XQ.*X*XQ.Q.Y.Y.",
"2X7X<X5XrX7X5X5X7X8X1X1X4X4X4X4X1X1X4X$X4X4X4X8X4X6X6X6X6X2X6X7X3X1X6X2X2X6X2X6XuX6XiXuXuXiXyX6X2X3X-X3X3X;X;X;X;X;XQ.Q.Q.Y.Y.Q.",
"7X<X<X5XsX5XaXrXfXeX1X1X4X4X4XeX6XeXeX4XeXeX4X4XeX4X4XaXfXrXrXsXiXsXaXiXiXsXiX6XiXsXdXdXuXdXsXuXuXyX3XyX;X3XyX;X;X;X*XQ.Y.Q.Y.Y.",
"2X5X5X2X5XsX5XsXeX8X4XeX4X4XeXeX6XeXeXeXeXeX4XeXsXfXsXsXfXfXhXfXdXgXfXgXgXgXgXdXdXdXdXdXdXuXuXyXuX6XyXyX3XyX;X;X*X*X*XY.Y.Y.Y.Y.",
"<X2X6XuX5XrXsXsXfXeXeXeX6XfX6X4XeXeXfXeXfXfXfXfXfXlXkXgXhXkXkXkXhXgXfXgXgXgXgXgXfXfXfXdXdXdXuXdXuXuXyXyXyXyX;X;XyXQ.*XQ.Y.Y.Y.Y.",
"6X2X2X6XdXsXsXsXsXfXfXfXeXeXeXeXfXeXlXzXeXlXfXfXfXhXfXgXfXkXfXkXzXgXhXgXgXgXgXgXgXgXdXgXdXdXdXuXuXyXyXyXyX;X3X;X;X;X*X*X*XY.Y.Y.",
"6X6X1X6XiXsXsXsXkXdXsXdXsXfXfXsXeXeXsXeXfXgXfXfXfXfXkXkXgXgXkXgXgXgXkXkXkXzXgXgXgXgXdXdXsXdXuXuXuXuXyXyXyXyX;X;X*X;X*X*XE.Y.U.U.",
"6X6X4X3X6XuXsXfXfXfXkXgXeXfXfXgX6XsXkXfXfXeXfXgXfXgXkXgXgXgXgXgXgXgXgXkXkXkXkXkXgXgXgXsXdXdXdXdXuXuXyXyXyXyX;X;XQ.;X*X*X*XE.Y.U.",
"6X6X6X4X6XuXsXfXgXsXsXgXzXgXsXkXgXgXgXgXkXfXfXzXgXgXfXgXgXfXgXgXgXgXgXgXkXkXkXzXjXgXgXdXsXdXuXuXuXuXyXyX;XyXyX*XyX;XQ.Q.*XE.Y.U.",
"4X3X6X4X6XsXdXgXdXgXgXgXgXgXgXgXgXdXgXgXkXkXfXfXgXfXkXkXgXgXgXjXkXzXgXkXkXkXzXkXgXjXgXdXsXdXuXuXuXuXyXyXyX;X;X;X*XQ.Q.E.*XE.Y.U.",
"6X1X4X6X6XuX6XgXgXgXgXjXgXgXzXzXdXfXgXgXgXzXgXgXkXkXzXkXgXgXjXkXkXkXzXgXkXkXgXgXjXjXdXdXdXuXyXuXuXyXyXyXyX;X;X;X-X*X*X@XQ.E.U.U.",
"3X4X6X4X6XsXdXgXdXdXgXjXgXzXzXzXgXgXkXkXgXgXgXzXgXgXgXkXzXjXgXgXjXgXjXzXzXzXkXzXcXjXgXdXdXdXdXuXuXuXyXyX;X;XyX;X;X*X*X@XE.E.U.E.",
"3X4X6X4X3XeXsXdXdXgXgXgXdXgXcXzXgXcXzXgXkXgXzXgXgXzXkXkXgXjXjXjXgXjXjXzXzXkXzXxXcXjXjXdXyXyXuXuXuXyXyXyX;XyX;X;X;X*X@X@XE.U.U.U.",
"1X1X6X3X4XuXuXsXdXsXdXsXgXzXzXcXcXjXzXkXgXgXgXkXjXgXgXkXgXzXzXgXxXxXcXzXxXxXxXzXjXjXjXdXdXdXuXuXuXyXyXyXyX3X;X;X;X-X$X@XE.U.U.U."
};
