/* XPM */
static const char *voo_icon[] = {
/* columns rows colors chars-per-pixel */
"64 64 207 2 ",
"   c #060606",
".  c #070809",
"X  c #07090A",
"o  c #090E11",
"O  c #0B1114",
"+  c #0D1519",
"@  c #111A1D",
"#  c #091926",
"$  c #0C1D2A",
"%  c #121D22",
"&  c #0E202F",
"*  c #14232C",
"=  c #142125",
"-  c #0F2231",
";  c #112534",
":  c #152935",
">  c #1A2D35",
",  c #152A3B",
"<  c #1B2D3B",
"1  c #142738",
"2  c #1D333C",
"3  c #21303C",
"4  c #162E41",
"5  c #192E42",
"6  c #1C3245",
"7  c #1D3549",
"8  c #1E394D",
"9  c #1C3642",
"0  c #283641",
"q  c #21364D",
"w  c #213A4D",
"e  c #213943",
"r  c #233D53",
"t  c #213F58",
"y  c #26414D",
"u  c #37454F",
"i  c #38454F",
"p  c #254156",
"a  c #25435B",
"s  c #2B445B",
"d  c #2C4A5C",
"f  c #2A4855",
"g  c #394650",
"h  c #304E5D",
"j  c #2F515F",
"k  c #30515D",
"l  c #2C4B64",
"z  c #2C4E69",
"x  c #274761",
"c  c #324C64",
"v  c #344E68",
"b  c #2D5464",
"n  c #2E526D",
"m  c #325364",
"M  c #34546C",
"N  c #3A556D",
"B  c #345B6C",
"V  c #3C596C",
"C  c #385564",
"Z  c #325771",
"A  c #345A74",
"S  c #3C5B73",
"D  c #355D79",
"F  c #3C5E79",
"G  c #3A5673",
"H  c #2F5470",
"J  c #3C6274",
"K  c #36627B",
"L  c #3A637C",
"P  c #3C6A7E",
"I  c #356174",
"U  c #38626F",
"Y  c #545F68",
"T  c #415D74",
"R  c #405B78",
"E  c #425F6D",
"W  c #5B666E",
"Q  c #436375",
"!  c #44647B",
"~  c #446A7C",
"^  c #4A6C7D",
"/  c #5F6A72",
"(  c #616B73",
")  c #6B757C",
"_  c #3C6581",
"`  c #3D6A83",
"'  c #3F6D89",
"]  c #3E7085",
"[  c #436681",
"{  c #446B83",
"}  c #4A6D83",
"|  c #436F8A",
" . c #4B6F89",
".. c #496783",
"X. c #447185",
"o. c #4D7184",
"O. c #43738B",
"+. c #4C738B",
"@. c #46798E",
"#. c #4B7A8E",
"$. c #4D7987",
"%. c #517486",
"&. c #51758B",
"*. c #547B8D",
"=. c #527886",
"-. c #457491",
";. c #477A91",
":. c #4C7C93",
">. c #4C7D99",
",. c #4C7693",
"<. c #527690",
"1. c #547C93",
"2. c #537E98",
"3. c #597E95",
"4. c #737C84",
"5. c #4D8195",
"6. c #4E839B",
"7. c #548194",
"8. c #5A8295",
"9. c #53849C",
"0. c #5B859B",
"q. c #538A9D",
"w. c #5D8A9C",
"e. c #7E878E",
"r. c #608C9D",
"t. c #62909E",
"y. c #548BA3",
"u. c #5C8CA4",
"i. c #598AA5",
"p. c #5791A6",
"a. c #5B92A5",
"s. c #5B94AB",
"d. c #5E99AE",
"f. c #5C96B1",
"g. c #5F9CB2",
"h. c #628EA3",
"j. c #6493A5",
"k. c #6494AA",
"l. c #6897AA",
"z. c #6399AC",
"x. c #6A9BAC",
"c. c #6897A7",
"v. c #639DB4",
"b. c #6A9DB2",
"n. c #639AB6",
"m. c #6CA2B4",
"M. c #66A4BC",
"N. c #6BA3BA",
"B. c #6CA9BD",
"V. c #67A3B5",
"C. c #71A5B6",
"Z. c #72A6BB",
"A. c #74AABC",
"S. c #72A8B6",
"D. c #79B2BF",
"F. c #6DACC3",
"G. c #6DABC5",
"H. c #73ABC2",
"J. c #78AFC3",
"K. c #6EB1C8",
"L. c #7AB3C5",
"P. c #72B4CA",
"I. c #7BB5CA",
"U. c #7DB9CD",
"Y. c #74B6C9",
"T. c #7BBDD2",
"R. c #76BCD3",
"E. c #7CC1D5",
"W. c #7EC3DA",
"Q. c #7FC8E0",
"!. c #868E95",
"~. c #939A9F",
"^. c #939AA0",
"/. c #989FA5",
"(. c #A9AFB3",
"). c #B6BBBF",
"_. c #81BDCE",
"`. c #81BDD1",
"'. c #B6BBC0",
"]. c #84C2D5",
"[. c #8ACBDC",
"{. c #86C7DA",
"}. c #8ED1DF",
"|. c #83C1CF",
" X c #BFC3C6",
".X c #87CDE1",
"XX c #8DD1E2",
"oX c #8AD6E8",
"OX c #91D4E6",
"+X c #95DAEA",
"@X c #99DFF0",
"#X c #9AE1EE",
"$X c #9BE4F2",
"%X c #9DEAF6",
"&X c #A6F2FA",
"*X c #A2ECF6",
"=X c #CACDD0",
"-X c #CDD1D4",
";X c #D4D7D9",
":X c #D7DADC",
">X c #E0E2E4",
",X c #E7E9EA",
"<X c #EDEEF0",
"1X c #EFF0F1",
"2X c #F4F5F5",
"3X c #FFFFFF",
"4X c #F7F7F8",
/* pixels */
"3X3X3X3X3X3X3X3X3X3X3X3X3X3X3X3X3X3X3X3X3X3X3X3X3X3X3X4X4X1X1X<X<X1X1X4X3X3X3X3X3X3X3X3X3X3X3X3X3X3X3X3X3X3X3X3X3X3X3X3X3X3X3X3X",
"3X3X3X3X3X3X3X3X3X3X3X3X3X3X3X3X3X3X3X3X3X3X3X2X,X;X X(.^.e.4.) ) 4.e.^.(. X-X,X2X4X3X3X3X3X3X3X3X3X3X3X3X3X3X3X3X3X3X3X3X3X3X3X",
"3X3X3X3X3X3X3X3X3X3X3X3X3X3X3X3X3X3X3X3X2X>X X~./ g < $ # # # # # # # # $ < u / ~.=X>X2X3X3X3X3X3X3X3X3X3X3X3X3X3X3X3X3X3X3X3X3X",
"3X3X3X3X3X3X3X3X3X3X3X3X3X3X3X3X3X3X<X=X/.W < # # # $ * 1 - - - - ; - - & $ # # # 3 Y /.-X<X3X3X3X3X3X3X3X3X3X3X3X3X3X3X3X3X3X3X",
"3X3X3X3X3X3X3X3X3X3X3X3X3X3X3X3X<X=X!.u $ # $ & ; , , 7 r t r 8 6 r w 5 5 , , ; $ $ # $ u !.=X2X3X3X3X3X3X3X3X3X3X3X3X3X3X3X3X3X",
"3X3X3X3X3X3X3X3X3X3X3X3X3X3X4X:X^.u $ # $ - 1 4 8 r t t n Z M z r M l q r r r e q , ; $ # # u ^.:X4X3X3X3X3X3X3X3X3X3X3X3X3X3X3X",
"3X3X3X3X3X3X3X3X3X3X3X3X3X<X).W $ # $ ; 4 5 q q x z x z A K _ S G ! G v M M v x d w 6 6 1 $ # $ W ).<X3X3X3X3X3X3X3X3X3X3X3X3X3X",
"3X3X3X3X3X3X3X3X3X3X3X3X>X^.3 # $ ; 4 q q 7 t x z A H z D _ >.`  .3.2.| ,.[ R S N d q a 7 4 1 $ # 3 ^.>X3X3X3X3X3X3X3X3X3X3X3X3X",
"3X3X3X3X3X3X3X3X3X3X3X;X4.* # - 5 8 p s c r s Z D D ' D D ' ' >.,.y.i.y.5.-.L [ ..c d m a r 8 4 & # & e.;X3X3X3X3X3X3X3X3X3X3X3X",
"3X3X3X3X3X3X3X3X3X4X-X( $ # 1 6 t l A J S R G F ` ' ' ,.D ' O.>.p.i.-.| ] O._ | u.G ! ! H a a a 6 & # $ / -X4X3X3X3X3X3X3X3X3X3X",
"3X3X3X3X3X3X3X3X3X-XW # $ 1 7 d M ! _ | ! ! ..! ! :.@.y.O.' ;.-.y.q.K O.` ` L q.I.2.u...n x A n p 6 - $ $ W -X3X3X3X3X3X3X3X3X3X",
"3X3X3X3X3X3X3X3X;X( # $ , 6 w c ~ ..2.y.i.+.} &.%.%.%.u.8.:.;.:.0.7.K [ 6.q.5.z..XI.k.<.A ` ` z l 8 5 1 $ # ( ;X3X3X3X3X3X3X3X3X",
"3X3X3X3X3X3X3X>X4.$ $ 1 5 s s l N +.o.2.n.R.i.r.3.%.r.Z.c.r.7.6.q.j.P 5.s.5.s.K.*X@Xc.h.w.9.P z Z t r 8 1 $ $ 4.>X3X3X3X3X3X3X3X",
"3X3X3X3X3X3X<X^.* # 1 q r l G Q ! o.1.^ 3.C.L.Z.h.1.Z.x.S.A.N.F.F.B.] d.q.@.g.{.&X+XA.r.+.@.K K ' Z s r 7 1 # * ~.<X3X3X3X3X3X3X",
"3X3X3X3X3X4X'.0 # ; 6 r s M <.o.+.8.j.r.o.j.j._.j.9.Z.b.C.[.{.oXoXP.p.K.#.] Y.[.*X_.A.^ L K n O.y.~ S N s 7 ; # 0 ).4X3X3X3X3X3X",
"3X3X3X3X3X:XY $ $ 4 r z G [ 9.k.%.*.*.=.^ 8.r.A.C.j.v.s.P.XX%X*X&XP.g.R.] 5.oX#X}.r.r.Q A P ` M.p.+.} [ l 8 , $ # Y :X3X3X3X3X3X",
"3X3X3X3X2X~.$ $ , q x ` 2.f.s.G.H.y.*.r.o.c.c.c.I.l.k.N.P.XX@X*X#XXXW.P.,.p.OX.XA.7.X.O.A :.s.{.2.....F n a 5 ; $ $ ^.1X3X3X3X3X",
"3X3X3X3X=Xu # ; e s S <.s.v.G.K.R.G.6.5.^ o.t.b.I._.b.n.T.T._.[.{.A.F.R.9.P.C.b.C.w.` y.i.V.T.N.3.+.[ -.F c q 5 ; # g =X3X3X3X3X",
"3X3X3X1X!.$ $ 5 r r v [ 3.k.H.XX{.T.y.P P o.^ 8.I.I.l.b.K.I.i.l.b.w.y.G.s.b.r.3.k.9.y.h.U.$X[.b.*.,.>.f.,.G c s 5 $ $ !.<X3X3X3X",
"3X3X3X-Xu # ; 6 r m [ 5.i.h.u.A.XXL.V.9.P B Q *.l.b.h.*.6.v.%.8.w.7.+.y.i.h.<. .0.2.k.l.I.C.A.x.s.f.f.f.2.<.R c e - # g =X3X3X3X",
"3X3X2X/.$ $ , q c Q o.:.d.K.Y.Y..XoXR.f.s.@.B Q 1.3.h.=.~ 9.o.^ =.@.X.q.O.&.<.&.2.<.%.3.x.j.H.`.T.k.b.H.3...v r 6 , $ $ /.4X3X3X",
"3X3X>XY # $ 5 r s ! 0.1.#.q.p.a.p.K.M.5.s.d.p.{ ^ ..1.j.~ I U B U U ] @.` ..<.3.-.R Q *.%.w.j.C._.I.`.k.1.[ c x t 7 & # Y >X3X3X",
"3X3X X3 $ , 8 a v c S ^ 7.7.7.q.V.f.y.` ] +.+.z.#.! J $.~ j B j j b @.P B S 0.p.! T %.o.<.7.8.*.I.XX`.I.2.[ Z x x 8 - $ 3  X3X3X",
"3X2X^.# & 5 r v ! ~ o.o.0.t.q.q.S.d.9.{ D P I J w.^ k k b e 2 > > e k j V +.2.9.R } 3.3.3.3.%.c.[._.`.n.f.,._ H z 8 - $ $ ^.2X3X",
"3X,X( # ; w d v R <.R ^ +.y.g.F.M.z.k.$.T N M K X.~ j > > = O O O @ * 3 f E J B $.w.h.<.&.1.t.E.[.A.P.N.G.p.-.D a 5 , ; # ( ,X3X",
"3X;Xi # , 8 x L 2.u.h.0.a.p.p.B.R.d.q.1.&.} } o.O.b 2 = o       . . . O = y f k ~ a.8.o.! } A.U.E.K.R.E.T.i.| G c s q 1 # i ;X3X",
"4X=X> $ 5 p z F ,.s.N.T.{.XXA.k.9.i.-.O.! ..$.7.U 2 = .                 X = 3 k J ^ ~ X.O.a.B.B.U.E.{.I.n...S N v v r 5 # 3  X3X",
"4X(.$ $ 8 d n P ..r.r.w.x.OXB.w.j.*.{ { @.{ o.X.f * .                     . = e U P P 7.6.q.j.c.|.[.C.%.&...R S [ S s 6 $ $ (.4X",
"4X^.# & e v S } 3.l.l.w.c.].+XD.j.*.#.@.#.~ J d > O                         o > j P 5.q.8.8.t.c.t.c.%.^ <.+.} X.@.Z s w ; # ~.4X",
"2X!.# ; w x Z [ &.a.k.z.d.U.%X%X].C.c.w.j.~ C y = X                           % y U ~ ^ 8.r.8.^ o.8.^ =.w.8.1.O.` L M p ; # e.2X",
"<X) # , d A ` @.6.9.y.s.q.m.[.$XOXL.8.^ &.~ C 2 @                             + > k B Q ^ ^ ~ Q 8.8.=.*.w.8.` | >.,.Z r * # ) 2X",
"<X) # , p l n D F A S +.*.w.c.L.I.R.s.:.9.:.B > O                             O > f U P X.P ~ Y Q 8.*.r.r.:.>.y.6.L l r - # ) <X",
"<X) # ; 8 s Z v N N ! } =.j.S.D.OXOXU.m.V.X.j > O                             o > j I @.@.~ E E ^ w.8.=.o.#.O.| D D M a , # ) <X",
"<X4.# - 7 s N M S { +.@.j.L.S._.@XOX_.N.a.~ B > +                             + 2 d P 5.w.=.^ t.c.r.c.8.*.} P P _ A M a , # 4.<X",
"2Xe.# ; 6 s v M _ { | i.N.J.].|.]..XF.V.*.Q b w *                             % y I _ { 7.9.Q =.c.D.S.C.8.} %.u.2._ z 8 & # e.2X",
"2X~.$ $ 6 t z n K ` 6.s.{.@XOX$X].P.V.*.%.~ J j > o                         o : p C { y.p.g.a.*.c.t.c.m.V.9.y.v.y.[ l 8 & # ~.2X",
"3X(.$ $ 5 a H D D ' y.R.+XXXC.F.M.v.m.w.Q } ~ m 3 %                       . % 2 B @.*.q.s.n.P.P.I.x.r.*.r.*.<.u.:.A a 6 & & (.4X",
"3X X, $ 5 a x H _ y.G.K._.r.3.M.K.B.8.! o.3.Q c f > @ X                 . + 2 f Q 7.w.3.l.G.b.I.+X}._.c.8.Q .... .S a , $ > =X3X",
"3X;Xi # 4 7 t H >.i.s.f.&.8.B.W.P.A.%.&.8.o.! ~ k f > = O           . o % > y f ! &.r.3.1.b.T.H.U.%X$X+XC.*.! [ G z p , # i -X3X",
"3X,X( # 1 7 x Z D >.3.2.&.x.P.T.U.`.j.J.b.<.0.Q V B f f > % O o O O % * 2 f b I N &...&.l.b.A.B.K.oX&X#XJ.j.h.,.A x 8 : # W ,X3X",
"3X2X~.# $ 8 a z G R  .i.i.b.J._.L.OX]._.8.>.:.J } ~ P I b 9 > : > 2 2 y d Q J ` 7.Q ! ! 3.b._.S.a.g.].XXI.h.3.~ Z s 6 $ # ~.2X4X",
"3X3X=X3 # 1 8 s v F [ >.>.b.[.+X$XOXI.u.{ s.G &.8.6.;.K P m d y f U b d S ! 8.X.5.p.} $.*.#.*.j.t.c.A.m.8.3.S v s q 1 $ 3 =X3X3X",
"3X3X>XY # - 5 q s G ' -.k.J.XX$X#X_.A.:.y.9.N 3.k.y.O.-.6.J Q d C ] 5.b !  .<.w.~ ] :.@.] X._ P 7.c.x.8.%.! N v s 7 ; # Y >X3X3X",
"3X3X2X/.$ $ , 6 t A ' 6.s.Z.`.&X*XOXb.s.y.Q T *.P :._ >.s.X.*.Q Q $.q.@.m &.<.o.7.X.] #.8.7.6.` ] j.m.%.! R N s w , $ $ /.2X3X3X",
"3X3X3X=Xg # - 5 c D ` | 2.l.U.OX%XXXW.M.6.~ V Q ~ *.! s.;.{ y.X.Q ^ q.q.B J x.8.*.c.*.q.b.c.C.x.V.N.z.0.} v d q 5 ; # u -X3X3X3X",
"3X3X3X<X!.$ $ e s Z D ~ 3.2.H.].oXF.W..X9.%.C *.h.1.&.G.` O.y.] 7.^ a.d.X.^ x.S.w.*.c.j.S.A.A.C.U.I.w.{ } G s q ; $ # !.1X3X3X3X",
"3X3X3X3X=Xg # 1 r s M ..3.2.H.T.v.v.F.{.t.Q C Q 8.*.k.I.+.s.K.y.7.=.8.B.q.J =.S._.x.w.j.m.[.L.A.I.H.n.+.Z z r 5 ; # u =X3X3X3X3X",
"3X3X3X3X1X^.$ # 5 q c R 2.k.M.y.6.g.b.m.3.T ^ E r.w.`.L.i.M.E.F.a.7.=.t.p.q.^ 7.].{.P.j.A.[.$X_.I.I.G.>.n t 6 ; $ $ ~.2X3X3X3X3X",
"3X3X3X3X3X:XY # $ 6 s V } 9.2.` 5.g.6.b.w.} o.%.L.x.[.b.*.K.R.P.B.v.J %.k.a.j.8.C.{.A.u.l.b..X{.I.b.k.[ l r 5 & # Y :X3X3X3X3X3X",
"3X3X3X3X3X4X).0 # ; r v S { F S :.i.O.A.c.^ ~ 5.R.I.V.h.5.Q.Q.R.K.F.q.P t.w.r.x.r.j.C.^ } 3.u.k.n.<...G r 5 - # 0 '.4X3X3X3X3X3X",
"3X3X3X3X3X3X<X~.* $ , t v v c v -.>._ b.*.Q :.v.B.A.q.1.6.$XoXg.d.Q.Y.q.z.x.C.A.j.w.c.^ C N ,.X.2...z t q ; $ ; ^.<X3X3X3X3X3X3X",
"3X3X3X3X3X3X3X>X4.$ $ , r s c G | -.D n.o.G q.V.k.a.y.] v.%XW.n.5.s.K.B.a.Y.I.I.h.w.3.8.} [ Z n Z G t 6 1 $ $ 4.>X3X3X3X3X3X3X3X",
"3X3X3X3X3X3X3X3X;X( # $ , r d l B D _ 2.! !  .h.3.*.| @.c.U.R.v.9.+.k.F.f.G.G.b.b.i.3.} <.,.A x t r r , $ $ ( :X3X3X3X3X3X3X3X3X",
"3X3X3X3X3X3X3X3X3X-XW $ $ , 6 r v M M S R S ..i.} 1.@.*.*.l.Z.p.' ,.} k.h.n.f.>.| | ,. .Q R S a 7 4 - $ # W =X4X3X3X3X3X3X3X3X3X",
"3X3X3X3X3X3X3X3X3X4X=X( $ # ; 6 w d c l G M ~ <.{  .5.! R w.w.>._ D <.+.<. .>.>.D H D A M c d p , & $ $ ( -X3X3X3X3X3X3X3X3X3X3X",
"3X3X3X3X3X3X3X3X3X3X3X;X4.* # ; , 6 p a n l G !  .:.{ F ! 8.} [ _ A  . .[ ! +.! D x a a s r q 5 - # - 4.;X4X3X3X3X3X3X3X3X3X3X3X",
"3X3X3X3X3X3X3X3X3X3X3X3X>X~.0 # $ - 6 r a l N M D ,.c c v ^ S N K Z z L S R ! G c s t q q , ; $ # 0 ^.>X3X3X3X3X3X3X3X3X3X3X3X3X",
"3X3X3X3X3X3X3X3X3X3X3X3X3X<X'.Y $ # $ 1 7 w a b M G r q s S c s n D x t c r v M p r e 5 1 $ # $ Y ).<X3X3X3X3X3X3X3X3X3X3X3X3X3X",
"3X3X3X3X3X3X3X3X3X3X3X3X3X3X4X:X~.u # # & : , 9 8 r r q r c s d x b a 8 7 r q w 8 5 ; $ # $ i ^.:X4X3X3X3X3X3X3X3X3X3X3X3X3X3X3X",
"3X3X3X3X3X3X3X3X3X3X3X3X3X3X3X3X2X=X!.i $ # # & - 1 5 5 q q 7 r r r r 6 , < 1 ; $ $ # # g !.=X1X3X3X3X3X3X3X3X3X3X3X3X3X3X3X3X3X",
"3X3X3X3X3X3X3X3X3X3X3X3X3X3X3X3X3X3X<X-X/.Y < # # $ $ $ - - ; ; : - ; & $ $ # # # 3 W /.-X<X3X3X3X3X3X3X3X3X3X3X3X3X3X3X3X3X3X3X",
"3X3X3X3X3X3X3X3X3X3X3X3X3X3X3X3X3X3X3X3X2X>X X~./ u < $ # # # # # # # # $ < i ( ^. X>X2X3X3X3X3X3X3X3X3X3X3X3X3X3X3X3X3X3X3X3X3X",
"3X3X3X3X3X3X3X3X3X3X3X3X3X3X3X3X3X3X3X3X3X3X3X2X,X;X X(.~.e.4.) ) 4.e.~.(. X;X,X2X3X3X3X3X3X3X3X3X3X3X3X3X3X3X3X3X3X3X3X3X3X3X3X",
"3X3X3X3X3X3X3X3X3X3X3X3X3X3X3X3X3X3X3X3X3X3X3X3X3X3X3X3X4X2X<X<X<X<X2X4X4X3X3X3X3X3X3X3X3X3X3X3X3X3X3X3X3X3X3X3X3X3X3X3X3X3X3X3X"
};
